<?xml version="1.0" encoding="UTF-8"?>
<svg id="Layer_1" xmlns="http://www.w3.org/2000/svg" version="1.1" viewBox="0 0 400 105.1" style="height:40px;" width="128" height="34">
  <!-- Generator: Adobe Illustrator 29.6.0, SVG Export Plug-In . SVG Version: 2.1.1 Build 207)  -->
  <defs>
    <style>
      .st0 {
        fill: #fff;
      }
    </style>
  </defs>
  <g>
    <g>
      <path class="st0" d="M32.4,101.9L3.9,52.6,32.3,3.3h56.9c0,0,28.5,49.2,28.5,49.2l-28.4,49.3h-56.9ZM9.9,52.6l25.5,44h50.9c0,0,25.4-44.2,25.4-44.2l-25.5-44h-50.9c0,0-25.4,44.2-25.4,44.2Z"/>
      <path class="st0" d="M30.6,105.1L.2,52.6,30.4,0h60.6c0,0,30.4,52.4,30.4,52.4l-30.2,52.5H30.6ZM13.6,52.6l23.6,40.8h47.2c0,0,23.5-41,23.5-41l-23.7-40.8h-47.2c0,0-23.5,41-23.5,41Z"/>
    </g>
    <g>
      <path class="st0" d="M44.3,81.3l-16.6-28.7,16.5-28.7h33.2s16.6,28.6,16.6,28.6l-16.5,28.7h-33.2ZM33.7,52.6l13.6,23.5h27.1c0,0,13.5-23.6,13.5-23.6l-13.6-23.5h-27.1s-13.5,23.6-13.5,23.6Z"/>
      <path class="st0" d="M43.3,82.9l-17.5-30.3,17.5-30.3h35s17.5,30.2,17.5,30.2l-17.5,30.3h-35ZM29.5,52.6l15.7,27.1h31.3c0,0,15.6-27.2,15.6-27.2l-15.7-27.1h-31.3s-15.6,27.2-15.6,27.2ZM46.4,77.7l-14.5-25.1,14.4-25.1h29s14.5,25,14.5,25l-14.5,25.1h-29ZM35.5,52.6l12.7,21.9h25.3s12.6-22,12.6-22l-12.7-21.9h-25.3s-12.6,22-12.6,22Z"/>
    </g>
  </g>
  <g>
    <g>
      <path class="st0" d="M176.2,47.7c0,3-.6,5.6-1.7,7.9-1.1,2.3-2.6,4.2-4.6,5.7-1.9,1.5-4.1,2.7-6.7,3.4-2.6.8-5.3,1.2-8.2,1.2s-3.8-.2-5.5-.5c-1.7-.3-3.2-.7-4.5-1.2-1.3-.5-2.4-.9-3.2-1.4-.9-.5-1.5-.9-1.9-1.3s-.6-.9-.8-1.7c-.2-.7-.2-1.8-.2-3.1s0-1.7,0-2.3.2-1.1.3-1.5c.1-.4.3-.7.5-.8.2-.2.5-.2.8-.2s1,.2,1.7.7c.8.5,1.7,1,2.9,1.6s2.6,1.1,4.2,1.6c1.6.5,3.5.7,5.7.7s2.7-.2,3.8-.5,2.1-.8,2.9-1.4c.8-.6,1.4-1.4,1.8-2.3s.6-1.9.6-3-.4-2.4-1.1-3.3c-.7-.9-1.6-1.8-2.8-2.5-1.1-.7-2.4-1.4-3.9-2-1.4-.6-2.9-1.3-4.5-2-1.5-.7-3-1.5-4.5-2.4s-2.7-2-3.9-3.2-2.1-2.7-2.8-4.4c-.7-1.7-1.1-3.8-1.1-6.1s.5-5.1,1.5-7.2,2.4-3.8,4.1-5.2c1.7-1.4,3.8-2.4,6.1-3.1,2.3-.7,4.8-1,7.4-1s2.7,0,4.1.3c1.4.2,2.6.5,3.8.8,1.2.4,2.2.8,3.1,1.2s1.5.8,1.8,1.1.5.6.6.8c.1.2.2.5.3.8,0,.3.1.8.1,1.3s0,1.2,0,1.9,0,1.6,0,2.2c0,.6-.1,1.1-.2,1.5-.1.4-.2.7-.4.8s-.4.3-.8.3-.8-.2-1.5-.6c-.7-.4-1.6-.9-2.6-1.3-1-.5-2.2-.9-3.6-1.3-1.4-.4-2.8-.6-4.5-.6s-2.4.1-3.3.5-1.7.7-2.4,1.3c-.6.5-1.1,1.2-1.4,2-.3.8-.5,1.6-.5,2.4,0,1.3.3,2.4,1,3.3.7.9,1.6,1.8,2.8,2.5s2.5,1.4,3.9,2c1.5.6,3,1.3,4.5,2,1.5.7,3,1.5,4.5,2.4s2.8,2,3.9,3.2,2.1,2.7,2.8,4.4c.7,1.7,1.1,3.7,1.1,6Z"/>
      <path class="st0" d="M229.6,63.3c0,.3-.1.6-.3.8-.2.2-.5.4-.9.6s-1,.3-1.8.3c-.7,0-1.7.1-2.8.1s-2.1,0-2.9-.1c-.8,0-1.3-.2-1.8-.3-.4-.2-.7-.3-.9-.6-.2-.2-.3-.5-.3-.8v-23.1h-21.4v23.1c0,.3,0,.6-.3.8-.2.2-.5.4-.9.6-.4.2-1,.3-1.8.3s-1.7.1-2.8.1-2.1,0-2.8-.1c-.8,0-1.4-.2-1.8-.3-.4-.2-.8-.3-.9-.6-.2-.2-.3-.5-.3-.8V9.3c0-.3.1-.6.3-.8.2-.2.5-.4.9-.6.4-.2,1-.3,1.8-.3s1.7-.1,2.8-.1,2.1,0,2.8.1c.7,0,1.3.2,1.8.3.4.2.8.3.9.6.2.2.3.5.3.8v21h21.4V9.3c0-.3.1-.6.3-.8.2-.2.5-.4.9-.6.4-.2,1-.3,1.8-.3.8,0,1.7-.1,2.9-.1s2.1,0,2.8.1c.7,0,1.3.2,1.8.3.4.2.8.3.9.6.2.2.3.5.3.8v54Z"/>
      <path class="st0" d="M288.9,60.5c.4,1.1.6,1.9.7,2.5s0,1.1-.4,1.4c-.3.3-.9.5-1.7.6-.8,0-2,.1-3.4.1s-2.7,0-3.5,0c-.8,0-1.5-.1-1.9-.3-.4-.1-.8-.3-.9-.6s-.3-.5-.4-.9l-3.8-11.5h-21.5l-3.6,11.2c-.1.4-.3.8-.5,1-.2.3-.5.5-.9.7s-1,.3-1.8.3c-.8,0-1.8,0-3.1,0s-2.4,0-3.2-.1c-.8,0-1.3-.3-1.6-.6s-.4-.8-.3-1.4c0-.6.3-1.4.7-2.5l17.6-50.7c.2-.5.4-.9.6-1.2.2-.3.6-.5,1.1-.7.5-.2,1.2-.3,2.1-.3s2.1,0,3.6,0,3.1,0,4.1,0c1,0,1.8.2,2.4.3.6.2,1,.4,1.2.7s.5.8.6,1.3l17.7,50.6ZM262.6,18.6h0l-8.1,24.3h16.2l-8.1-24.3Z"/>
      <path class="st0" d="M315.7,49c0,2.6-.2,4.9-.7,7-.5,2.1-1.3,3.8-2.5,5.3s-2.7,2.6-4.6,3.3c-1.9.8-4.2,1.2-7,1.2s-1.8,0-2.6-.2-1.7-.3-2.4-.5c-.7-.2-1.4-.4-1.9-.7s-.9-.5-1.1-.6-.3-.4-.4-.6c-.1-.2-.2-.5-.3-.8,0-.3-.1-.8-.2-1.3s0-1.1,0-1.9,0-1.8,0-2.5.1-1.2.2-1.6c.1-.4.2-.7.4-.8s.4-.2.7-.2.6,0,.9.3c.4.2.8.4,1.2.6s1,.4,1.5.6c.6.2,1.3.3,2.1.3s1.5-.1,2.1-.3c.6-.2,1.1-.6,1.5-1.2.4-.5.7-1.3.9-2.2.2-.9.3-2.1.3-3.5V9.2c0-.3,0-.6.3-.8.2-.2.5-.4.9-.6.4-.2,1-.3,1.8-.3.8,0,1.7-.1,2.8-.1s2,0,2.8.1,1.3.2,1.8.3c.5.1.8.3,1,.6s.3.5.3.8v39.7h0Z"/>
      <path class="st0" d="M339.7,63.3c0,.3-.1.6-.3.8-.2.2-.5.4-1,.6s-1,.3-1.8.3-1.7.1-2.8.1-2,0-2.8-.1c-.8,0-1.4-.2-1.8-.3s-.8-.3-1-.6c-.2-.2-.3-.5-.3-.8V9.3c0-.3.1-.6.3-.8s.5-.4,1-.6c.5-.2,1-.3,1.8-.3.7,0,1.7-.1,2.8-.1s2.1,0,2.8.1c.7,0,1.3.2,1.8.3.4.2.8.3,1,.6.2.2.3.5.3.8v54Z"/>
      <path class="st0" d="M399.6,35.5c0,5.2-.7,9.7-2,13.4-1.4,3.7-3.3,6.8-5.9,9.1-2.6,2.3-5.7,4.1-9.3,5.2-3.7,1.1-8,1.7-13.1,1.7h-13.6c-1,0-1.8-.3-2.5-.9s-1-1.5-1-2.8V11.4c0-1.3.3-2.2,1-2.8.7-.6,1.5-.9,2.5-.9h14.7c5.1,0,9.4.6,13,1.8s6.5,3,9,5.3c2.4,2.3,4.3,5.2,5.5,8.7,1.3,3.4,1.9,7.4,1.9,12ZM387.6,35.9c0-2.7-.3-5.2-1-7.5s-1.6-4.3-3-6-3.2-3-5.4-4c-2.2-1-5.1-1.4-8.6-1.4h-5.9v38.9h6c3.2,0,5.9-.4,8-1.2,2.2-.8,4-2.1,5.5-3.7,1.5-1.7,2.5-3.7,3.3-6.2.7-2.5,1.1-5.4,1.1-8.7Z"/>
    </g>
    <g>
      <path class="st0" d="M143.9,97.2c0,.1,0,.2-.1.3s-.2.2-.4.2c-.2,0-.4.1-.8.2-.3,0-.7,0-1.2,0s-.9,0-1.2,0c-.3,0-.6,0-.8-.2-.2,0-.3-.2-.4-.2s-.1-.2-.1-.3v-23.2c0-.1,0-.2.1-.3s.2-.2.4-.2c.2,0,.4-.1.8-.2s.7,0,1.2,0,.9,0,1.2,0c.3,0,.6,0,.8.2.2,0,.3.2.4.2s.1.2.1.3v23.2h0Z"/>
      <path class="st0" d="M169.5,96.2c0,.3,0,.6-.1.8-.1.2-.2.4-.4.6s-.4.3-.6.3c-.2,0-.5,0-.7,0h-2.1c-.4,0-.8,0-1.1-.1-.3,0-.6-.2-.9-.5s-.5-.6-.8-.9c-.2-.4-.5-.9-.9-1.6l-6.1-11.5c-.4-.7-.7-1.4-1.1-2.2s-.7-1.6-1-2.3h0c0,.9,0,1.8.1,2.7,0,.9,0,1.8,0,2.8v12.9c0,.1,0,.2-.1.3,0,0-.2.2-.4.3s-.4.1-.7.2-.7,0-1.1,0-.8,0-1.1,0c-.3,0-.5,0-.7-.2-.2,0-.3-.2-.3-.3,0,0,0-.2,0-.3v-22.1c0-.6.2-1,.5-1.3.4-.3.8-.4,1.3-.4h2.7c.5,0,.9,0,1.2.1.3,0,.6.2.9.4.3.2.5.4.7.8.2.3.5.8.7,1.2l4.8,9c.3.5.6,1.1.8,1.6.3.5.5,1.1.8,1.6.2.5.5,1,.7,1.6s.5,1,.7,1.5h0c0-.9,0-1.8,0-2.8,0-1,0-1.9,0-2.8v-11.5c0-.1,0-.2.1-.3,0,0,.2-.2.4-.3.2,0,.4-.1.7-.2.3,0,.7,0,1.1,0s.8,0,1.1,0c.3,0,.5,0,.7.2.2,0,.3.2.3.3,0,0,0,.2,0,.3v22.1h0Z"/>
      <path class="st0" d="M191.2,75.4c0,.4,0,.7,0,.9s0,.5-.1.6c0,.2-.1.3-.2.3,0,0-.2.1-.3.1h-6.1v19.8c0,.1,0,.2-.1.3s-.2.2-.4.2c-.2,0-.4.1-.8.2s-.7,0-1.2,0-.9,0-1.2,0c-.3,0-.6,0-.8-.2-.2,0-.3-.2-.4-.2s-.1-.2-.1-.3v-19.8h-6.1c-.1,0-.2,0-.3-.1,0,0-.2-.2-.2-.3,0-.2-.1-.4-.1-.6,0-.3,0-.6,0-.9s0-.7,0-1c0-.3,0-.5.1-.6,0-.2.1-.3.2-.3s.2,0,.3,0h17.3c.1,0,.2,0,.3,0,.1,0,.2.2.2.3s.1.4.1.6c0,.3,0,.6,0,1Z"/>
      <path class="st0" d="M208.6,95.9c0,.4,0,.7,0,.9s0,.4-.1.6-.1.3-.2.3-.2.1-.3.1h-12.3c-.4,0-.8-.1-1.1-.4s-.4-.7-.4-1.2v-21.4c0-.6.1-1,.4-1.2.3-.2.6-.4,1.1-.4h12.3c.1,0,.2,0,.3,0s.2.2.2.3.1.4.1.6,0,.6,0,.9,0,.7,0,.9c0,.2,0,.4-.1.6s-.1.3-.2.3-.2.1-.3.1h-8.8v6h7.4c.1,0,.2,0,.3,0,0,0,.2.2.2.3,0,.2.1.3.1.6s0,.6,0,.9,0,.7,0,.9c0,.2,0,.4-.1.6s-.1.2-.2.3-.2,0-.3,0h-7.4v6.9h8.8c.1,0,.2,0,.3.1s.2.2.2.3c0,.2.1.3.1.6,0,.2,0,.6,0,.9Z"/>
      <path class="st0" d="M231.3,97.3c0,.1,0,.3,0,.3s-.2.2-.4.2c-.2,0-.5.1-.8.1-.4,0-.9,0-1.5,0s-1,0-1.3,0c-.3,0-.6,0-.8-.1s-.3-.2-.4-.3c0-.1-.1-.2-.2-.4l-2.2-5.5c-.3-.6-.5-1.2-.8-1.7s-.5-.9-.8-1.2c-.3-.3-.7-.6-1.1-.7-.4-.2-.9-.2-1.4-.2h-1.6v9.4c0,.1,0,.2-.1.3s-.2.2-.4.2c-.2,0-.4.1-.8.2s-.7,0-1.2,0-.9,0-1.2,0c-.3,0-.6,0-.8-.2-.2,0-.3-.2-.4-.2,0,0-.1-.2-.1-.3v-22.3c0-.6.1-1,.4-1.2.3-.2.6-.4,1.1-.4h6.4c.6,0,1.2,0,1.6,0,.4,0,.8,0,1.1,0,1,.1,1.9.4,2.7.7.8.3,1.5.8,2,1.3.6.6,1,1.2,1.3,2s.4,1.6.4,2.6-.1,1.6-.3,2.2c-.2.7-.5,1.3-.9,1.8-.4.5-.9,1-1.5,1.4-.6.4-1.3.7-2,.9.4.2.7.4,1,.7.3.2.6.6.9.9s.6.8.8,1.2c.2.5.5,1,.7,1.6l2.1,4.8c.2.5.3.8.4,1.1,0,.2,0,.4,0,.5ZM224.8,80.6c0-.8-.2-1.5-.6-2.1-.4-.6-1-.9-1.8-1.2-.2,0-.5-.1-.9-.2s-.8,0-1.3,0h-2.2v7h2.5c.7,0,1.3,0,1.9-.3.5-.2,1-.4,1.3-.7.4-.3.6-.7.8-1.1.2-.4.3-.9.3-1.4Z"/>
      <path class="st0" d="M255.2,96.2c0,.3,0,.6-.1.8-.1.2-.2.4-.4.6s-.4.3-.6.3c-.2,0-.5,0-.7,0h-2.1c-.4,0-.8,0-1.1-.1-.3,0-.6-.2-.9-.5s-.5-.6-.8-.9c-.2-.4-.5-.9-.9-1.6l-6.1-11.5c-.4-.7-.7-1.4-1.1-2.2-.4-.8-.7-1.6-1-2.3h0c0,.9,0,1.8.1,2.7s0,1.8,0,2.8v12.9c0,.1,0,.2-.1.3s-.2.2-.4.3-.4.1-.7.2-.7,0-1.1,0-.8,0-1.1,0-.5,0-.7-.2c-.2,0-.3-.2-.3-.3,0,0,0-.2,0-.3v-22.1c0-.6.2-1,.5-1.3.4-.3.8-.4,1.3-.4h2.7c.5,0,.9,0,1.2.1s.6.2.9.4c.3.2.5.4.7.8.2.3.5.8.7,1.2l4.8,9c.3.5.6,1.1.8,1.6.3.5.5,1.1.8,1.6.2.5.5,1,.7,1.6s.5,1,.7,1.5h0c0-.9,0-1.8,0-2.8,0-1,0-1.9,0-2.8v-11.5c0-.1,0-.2.1-.3,0,0,.2-.2.4-.3.2,0,.4-.1.7-.2.3,0,.7,0,1.1,0s.8,0,1.1,0c.3,0,.5,0,.7.2.2,0,.3.2.3.3,0,0,0,.2,0,.3v22.1h0Z"/>
      <path class="st0" d="M280.6,96c.1.5.2.8.3,1.1,0,.3,0,.5-.1.6-.1.1-.4.2-.7.2-.4,0-.8,0-1.5,0s-1.1,0-1.5,0c-.4,0-.6,0-.8-.1-.2,0-.3-.1-.4-.2s-.1-.2-.2-.4l-1.7-4.9h-9.2l-1.6,4.8c0,.2-.1.3-.2.4,0,.1-.2.2-.4.3s-.4.1-.8.1c-.3,0-.8,0-1.3,0s-1,0-1.4,0-.6-.1-.7-.3c-.1-.2-.2-.3-.1-.6,0-.3.1-.6.3-1.1l7.6-21.8c0-.2.2-.4.3-.5.1-.1.3-.2.5-.3s.5-.1.9-.1.9,0,1.6,0,1.3,0,1.8,0,.8,0,1,.1c.2,0,.4.2.5.3s.2.3.3.6l7.6,21.8ZM269.4,78h0l-3.5,10.4h7l-3.5-10.4Z"/>
      <path class="st0" d="M297.4,75.4c0,.4,0,.7,0,.9s0,.5-.1.6c0,.2-.1.3-.2.3,0,0-.2.1-.3.1h-6.1v19.8c0,.1,0,.2-.1.3s-.2.2-.4.2c-.2,0-.5.1-.8.2-.3,0-.7,0-1.2,0s-.9,0-1.2,0c-.3,0-.6,0-.8-.2-.2,0-.3-.2-.4-.2,0,0-.1-.2-.1-.3v-19.8h-6.1c-.1,0-.2,0-.3-.1s-.2-.2-.2-.3c0-.2-.1-.4-.1-.6,0-.3,0-.6,0-.9s0-.7,0-1c0-.3,0-.5.1-.6s.1-.3.2-.3.2,0,.3,0h17.3c.1,0,.2,0,.3,0,.1,0,.2.2.2.3,0,.2.1.4.1.6,0,.3,0,.6,0,1Z"/>
      <path class="st0" d="M305.3,97.2c0,.1,0,.2-.1.3s-.2.2-.4.2c-.2,0-.4.1-.8.2s-.7,0-1.2,0-.9,0-1.2,0c-.3,0-.6,0-.8-.2-.2,0-.3-.2-.4-.2,0,0-.1-.2-.1-.3v-23.2c0-.1,0-.2.1-.3s.2-.2.4-.2c.2,0,.5-.1.8-.2.3,0,.7,0,1.2,0s.9,0,1.2,0c.3,0,.6,0,.8.2.2,0,.3.2.4.2,0,0,.1.2.1.3v23.2h0Z"/>
      <path class="st0" d="M332.7,85.3c0,2-.2,3.9-.8,5.5s-1.3,3-2.3,4.1c-1,1.1-2.2,2-3.7,2.6s-3.2.9-5.1.9-3.6-.2-5-.8-2.6-1.3-3.6-2.3c-1-1-1.7-2.3-2.1-3.9s-.7-3.4-.7-5.6.2-3.8.8-5.4c.5-1.6,1.3-2.9,2.3-4.1s2.2-2,3.7-2.6,3.2-.9,5.1-.9,3.5.2,4.9.7c1.4.5,2.6,1.2,3.6,2.3,1,1,1.7,2.3,2.2,3.9.5,1.6.7,3.4.7,5.5ZM327.5,85.6c0-1.3-.1-2.5-.3-3.5-.2-1.1-.5-2-1-2.7-.5-.8-1.1-1.3-1.9-1.8-.8-.4-1.8-.6-3-.6s-2.2.2-3.1.7-1.5,1.1-2,1.8c-.5.8-.9,1.7-1.1,2.7-.2,1-.3,2.1-.3,3.3s.1,2.6.3,3.6c.2,1.1.5,2,1,2.7.5.8,1.1,1.3,1.9,1.7s1.8.6,3,.6,2.2-.2,3.1-.7c.8-.5,1.5-1.1,2-1.9.5-.8.9-1.7,1.1-2.7.2-1,.3-2.1.3-3.3Z"/>
      <path class="st0" d="M357.2,96.2c0,.3,0,.6-.1.8-.1.2-.2.4-.4.6s-.4.3-.6.3c-.2,0-.5,0-.7,0h-2.1c-.4,0-.8,0-1.1-.1s-.6-.2-.9-.5c-.3-.2-.5-.6-.8-.9-.2-.4-.5-.9-.9-1.6l-6.1-11.5c-.4-.7-.7-1.4-1.1-2.2-.4-.8-.7-1.6-1-2.3h0c0,.9,0,1.8.1,2.7s0,1.8,0,2.8v12.9c0,.1,0,.2-.1.3,0,0-.2.2-.4.3-.2,0-.4.1-.7.2s-.7,0-1.1,0-.8,0-1.1,0-.5,0-.7-.2c-.2,0-.3-.2-.3-.3,0,0,0-.2,0-.3v-22.1c0-.6.2-1,.5-1.3.4-.3.8-.4,1.3-.4h2.7c.5,0,.9,0,1.2.1s.6.2.9.4.5.4.7.8c.2.3.5.8.7,1.2l4.8,9c.3.5.5,1.1.8,1.6.3.5.5,1.1.8,1.6.2.5.5,1,.7,1.6s.5,1,.7,1.5h0c0-.9,0-1.8,0-2.8,0-1,0-1.9,0-2.8v-11.5c0-.1,0-.2.1-.3,0,0,.2-.2.4-.3.2,0,.4-.1.7-.2.3,0,.7,0,1.1,0s.8,0,1.1,0c.3,0,.5,0,.7.2.2,0,.3.2.3.3,0,0,0,.2,0,.3v22.1h0Z"/>
      <path class="st0" d="M382.7,96c.1.5.2.8.3,1.1,0,.3,0,.5-.1.6-.1.1-.4.2-.7.2-.4,0-.8,0-1.5,0s-1.1,0-1.5,0c-.4,0-.6,0-.8-.1-.2,0-.3-.1-.4-.2s-.1-.2-.2-.4l-1.6-4.9h-9.2l-1.6,4.8c0,.2-.1.3-.2.4,0,.1-.2.2-.4.3s-.4.1-.8.1c-.3,0-.8,0-1.3,0s-1,0-1.4,0-.6-.1-.7-.3c-.1-.2-.2-.3-.1-.6,0-.3.1-.6.3-1.1l7.6-21.8c0-.2.2-.4.3-.5.1-.1.3-.2.5-.3s.5-.1.9-.1.9,0,1.6,0,1.3,0,1.8,0,.8,0,1,.1c.2,0,.4.2.5.3s.2.3.3.6l7.6,21.7ZM371.4,78h0l-3.5,10.4h7l-3.5-10.4Z"/>
      <path class="st0" d="M399.6,95.8c0,.4,0,.7,0,1,0,.3,0,.5-.1.7,0,.2-.1.3-.2.4,0,0-.2.1-.3.1h-11.3c-.4,0-.8-.1-1-.4s-.4-.7-.4-1.2v-22.3c0-.1,0-.2.1-.3s.2-.2.4-.2c.2,0,.5-.1.8-.2.3,0,.7,0,1.2,0s.9,0,1.2,0c.3,0,.6,0,.8.2.2,0,.3.2.4.2,0,0,.1.2.1.3v19.8h7.7c.1,0,.2,0,.3.1.1,0,.2.2.2.3,0,.2.1.4.1.6,0,.2,0,.6,0,.9Z"/>
    </g>
  </g>
</svg>