<?xml version="1.0" encoding="utf-8"?>
<!-- Generator: Adobe Illustrator 26.1.0, SVG Export Plug-In . SVG Version: 6.00 Build 0)  -->
<svg version="1.1" id="Layer_1" xmlns="http://www.w3.org/2000/svg" xmlns:xlink="http://www.w3.org/1999/xlink" x="0px" y="0px"
	 viewBox="0 0 400 105.05" style="enable-background:new 0 0 400 105.05;" xml:space="preserve">
<style type="text/css">
	.st0{fill:#132549;}
	.st1{fill:#122549;}
</style>
<g>
	<g>
		<g>
			<g>
				<path class="st0" d="M32.43,101.85L3.9,52.61L32.28,3.28L89.19,3.2l28.53,49.25l-28.38,49.33L32.43,101.85z M9.92,52.6
					l25.51,44.03l50.89-0.07l25.38-44.11L86.19,8.42L35.3,8.49L9.92,52.6z"/>
				<path class="st1" d="M30.58,105.06L0.2,52.62L30.43,0.08l60.61-0.09l30.39,52.45L91.2,104.98L30.58,105.06z M13.63,52.59
					l23.65,40.83l47.18-0.07L108,52.46L84.34,11.63L37.16,11.7L13.63,52.59z"/>
			</g>
		</g>
		<g>
			<g>
				<path class="st0" d="M44.28,81.26L27.66,52.57l16.54-28.74l33.15-0.05l16.62,28.69L77.43,81.21L44.28,81.26z M33.68,52.57
					l13.6,23.48L74.41,76l13.53-23.52l-13.6-23.48l-27.13,0.04L33.68,52.57z"/>
				<path class="st1" d="M43.35,82.87L25.8,52.58l17.46-30.34l35.01-0.05l17.55,30.29L78.36,82.82L43.35,82.87z M29.51,52.57
					L45.2,79.66l31.3-0.05l15.61-27.13L76.42,25.39l-31.3,0.05L29.51,52.57z M46.36,77.65L31.83,52.57l14.45-25.12l28.99-0.04
					L89.8,52.48L75.34,77.61L46.36,77.65z M35.53,52.56L48.2,74.44l25.28-0.04l12.61-21.91L73.42,30.61l-25.28,0.04L35.53,52.56z"/>
			</g>
		</g>
	</g>
	<g>
		<g>
			<path class="st0" d="M176.17,47.72c0,3-0.56,5.64-1.68,7.9c-1.12,2.26-2.63,4.16-4.55,5.67c-1.91,1.52-4.15,2.66-6.71,3.42
				c-2.56,0.76-5.3,1.15-8.21,1.15c-1.97,0-3.8-0.16-5.5-0.49c-1.69-0.32-3.19-0.71-4.48-1.17c-1.3-0.46-2.38-0.93-3.24-1.43
				c-0.87-0.5-1.49-0.94-1.88-1.33s-0.65-0.93-0.82-1.66c-0.16-0.72-0.24-1.76-0.24-3.11c0-0.91,0.03-1.68,0.09-2.3
				c0.06-0.62,0.16-1.12,0.29-1.5c0.13-0.38,0.31-0.65,0.53-0.82c0.22-0.16,0.48-0.24,0.77-0.24c0.41,0,0.99,0.24,1.74,0.73
				c0.75,0.49,1.71,1.02,2.89,1.61c1.18,0.59,2.58,1.12,4.22,1.61c1.63,0.49,3.52,0.73,5.67,0.73c1.41,0,2.68-0.17,3.8-0.51
				s2.07-0.82,2.85-1.43c0.78-0.62,1.38-1.38,1.79-2.3s0.62-1.93,0.62-3.05c0-1.29-0.35-2.41-1.06-3.33
				c-0.7-0.92-1.63-1.75-2.76-2.47c-1.13-0.72-2.42-1.4-3.86-2.03c-1.44-0.63-2.93-1.3-4.46-2.01c-1.53-0.71-3.02-1.51-4.46-2.41
				c-1.44-0.9-2.73-1.97-3.86-3.22c-1.13-1.25-2.05-2.73-2.76-4.44c-0.71-1.71-1.06-3.75-1.06-6.14c0-2.74,0.51-5.14,1.52-7.22
				s2.38-3.8,4.11-5.16c1.72-1.37,3.75-2.39,6.09-3.07c2.34-0.68,4.82-1.02,7.44-1.02c1.35,0,2.71,0.1,4.06,0.31
				c1.35,0.21,2.62,0.49,3.8,0.84c1.18,0.35,2.22,0.75,3.13,1.19c0.91,0.44,1.52,0.81,1.81,1.1c0.29,0.29,0.49,0.55,0.6,0.75
				c0.1,0.21,0.19,0.48,0.27,0.82c0.07,0.34,0.12,0.76,0.15,1.28c0.03,0.52,0.04,1.16,0.04,1.92c0,0.85-0.02,1.58-0.07,2.16
				c-0.04,0.59-0.12,1.07-0.22,1.46c-0.1,0.39-0.25,0.66-0.44,0.84c-0.19,0.18-0.45,0.27-0.77,0.27c-0.32,0-0.84-0.21-1.54-0.62
				c-0.71-0.41-1.58-0.86-2.6-1.34c-1.03-0.49-2.22-0.93-3.58-1.33c-1.35-0.4-2.84-0.6-4.46-0.6c-1.27,0-2.37,0.15-3.31,0.46
				c-0.94,0.31-1.73,0.74-2.36,1.28c-0.63,0.55-1.1,1.2-1.41,1.96c-0.31,0.77-0.46,1.58-0.46,2.43c0,1.27,0.34,2.36,1.04,3.29
				c0.69,0.93,1.62,1.75,2.78,2.47c1.16,0.72,2.48,1.4,3.95,2.03c1.47,0.63,2.97,1.3,4.5,2.01c1.53,0.7,3.03,1.51,4.5,2.41
				c1.47,0.9,2.78,1.97,3.93,3.22c1.15,1.25,2.08,2.72,2.78,4.41C175.81,43.44,176.17,45.43,176.17,47.72z"/>
			<path class="st0" d="M229.63,63.27c0,0.29-0.1,0.56-0.29,0.79c-0.19,0.24-0.51,0.43-0.95,0.58c-0.44,0.15-1.03,0.26-1.77,0.35
				c-0.73,0.09-1.66,0.13-2.78,0.13c-1.15,0-2.1-0.05-2.85-0.13c-0.75-0.09-1.34-0.2-1.77-0.35c-0.43-0.15-0.74-0.34-0.93-0.58
				c-0.19-0.23-0.29-0.5-0.29-0.79V40.18h-21.37v23.09c0,0.29-0.09,0.56-0.26,0.79c-0.18,0.24-0.49,0.43-0.93,0.58
				c-0.44,0.15-1.03,0.26-1.77,0.35c-0.74,0.09-1.68,0.13-2.83,0.13c-1.12,0-2.05-0.05-2.8-0.13c-0.75-0.09-1.35-0.2-1.79-0.35
				c-0.44-0.15-0.76-0.34-0.95-0.58c-0.19-0.23-0.29-0.5-0.29-0.79V9.32c0-0.29,0.1-0.56,0.29-0.79c0.19-0.23,0.51-0.43,0.95-0.57
				c0.44-0.15,1.04-0.26,1.79-0.35c0.75-0.09,1.68-0.13,2.8-0.13c1.15,0,2.09,0.04,2.83,0.13c0.73,0.09,1.33,0.21,1.77,0.35
				c0.44,0.15,0.75,0.34,0.93,0.57c0.18,0.24,0.26,0.5,0.26,0.79v20.97h21.37V9.32c0-0.29,0.1-0.56,0.29-0.79
				c0.19-0.23,0.5-0.43,0.93-0.57c0.43-0.15,1.01-0.26,1.77-0.35c0.75-0.09,1.7-0.13,2.85-0.13c1.12,0,2.05,0.04,2.78,0.13
				c0.74,0.09,1.33,0.21,1.77,0.35c0.44,0.15,0.76,0.34,0.95,0.57c0.19,0.24,0.29,0.5,0.29,0.79V63.27z"/>
			<path class="st0" d="M288.87,60.53c0.35,1.06,0.57,1.9,0.66,2.52c0.09,0.62-0.03,1.08-0.35,1.39c-0.32,0.31-0.9,0.5-1.72,0.57
				c-0.82,0.08-1.96,0.11-3.4,0.11c-1.5,0-2.67-0.02-3.51-0.07c-0.84-0.04-1.48-0.13-1.92-0.26c-0.44-0.13-0.75-0.32-0.93-0.55
				c-0.18-0.23-0.32-0.55-0.44-0.93l-3.84-11.48h-21.46L248.35,63c-0.12,0.41-0.27,0.76-0.46,1.04c-0.19,0.28-0.5,0.5-0.93,0.66
				c-0.43,0.16-1.03,0.27-1.81,0.33c-0.78,0.06-1.8,0.09-3.07,0.09c-1.35,0-2.41-0.05-3.18-0.13c-0.77-0.09-1.3-0.3-1.59-0.64
				c-0.29-0.34-0.4-0.82-0.31-1.43c0.09-0.62,0.31-1.44,0.66-2.47l17.61-50.68c0.18-0.5,0.38-0.91,0.62-1.21
				c0.23-0.31,0.61-0.54,1.12-0.71c0.52-0.16,1.23-0.26,2.14-0.31s2.12-0.07,3.62-0.07c1.74,0,3.12,0.02,4.15,0.07
				c1.03,0.04,1.83,0.15,2.41,0.31c0.57,0.16,0.99,0.41,1.24,0.73c0.25,0.32,0.46,0.77,0.64,1.33L288.87,60.53z M262.65,18.63h-0.04
				l-8.08,24.28h16.2L262.65,18.63z"/>
			<path class="st0" d="M315.67,48.96c0,2.59-0.24,4.92-0.73,7c-0.49,2.08-1.31,3.84-2.47,5.3c-1.16,1.46-2.69,2.57-4.57,3.33
				c-1.88,0.77-4.21,1.15-6.98,1.15c-0.88,0-1.76-0.07-2.63-0.2c-0.87-0.13-1.66-0.3-2.38-0.51c-0.72-0.2-1.35-0.43-1.88-0.66
				c-0.53-0.23-0.88-0.45-1.06-0.64c-0.18-0.19-0.32-0.39-0.44-0.6c-0.12-0.2-0.22-0.48-0.31-0.81c-0.09-0.34-0.15-0.76-0.18-1.26
				c-0.03-0.5-0.04-1.13-0.04-1.9c0-1,0.02-1.85,0.07-2.54s0.12-1.24,0.22-1.64c0.1-0.39,0.25-0.68,0.44-0.84
				c0.19-0.16,0.43-0.24,0.73-0.24c0.26,0,0.57,0.1,0.93,0.29c0.35,0.19,0.75,0.39,1.19,0.6c0.44,0.21,0.96,0.4,1.55,0.6
				c0.59,0.19,1.28,0.29,2.08,0.29c0.79,0,1.49-0.11,2.1-0.33c0.6-0.22,1.1-0.6,1.5-1.15c0.4-0.55,0.7-1.27,0.9-2.19
				c0.21-0.91,0.31-2.09,0.31-3.53V9.23c0-0.29,0.09-0.55,0.29-0.77c0.19-0.22,0.5-0.4,0.93-0.55c0.43-0.15,1.02-0.26,1.79-0.33
				c0.77-0.07,1.71-0.11,2.83-0.11c1.12,0,2.05,0.04,2.78,0.11c0.73,0.07,1.33,0.18,1.79,0.33c0.46,0.15,0.78,0.33,0.97,0.55
				s0.29,0.48,0.29,0.77V48.96z"/>
			<path class="st0" d="M339.68,63.27c0,0.29-0.1,0.56-0.29,0.79c-0.19,0.24-0.51,0.43-0.95,0.58c-0.44,0.15-1.03,0.26-1.77,0.35
				c-0.74,0.09-1.68,0.13-2.83,0.13c-1.12,0-2.05-0.05-2.8-0.13c-0.75-0.09-1.35-0.2-1.79-0.35c-0.44-0.15-0.76-0.34-0.95-0.58
				c-0.19-0.23-0.29-0.5-0.29-0.79V9.32c0-0.29,0.1-0.56,0.29-0.79c0.19-0.23,0.52-0.43,0.97-0.57c0.46-0.15,1.05-0.26,1.79-0.35
				c0.73-0.09,1.66-0.13,2.78-0.13c1.15,0,2.09,0.04,2.83,0.13c0.73,0.09,1.33,0.21,1.77,0.35c0.44,0.15,0.76,0.34,0.95,0.57
				c0.19,0.24,0.29,0.5,0.29,0.79V63.27z"/>
			<path class="st0" d="M399.59,35.45c0,5.24-0.68,9.72-2.05,13.44c-1.37,3.72-3.33,6.76-5.89,9.12c-2.56,2.35-5.67,4.08-9.34,5.19
				c-3.66,1.1-8.03,1.65-13.09,1.65h-13.64c-0.97,0-1.79-0.29-2.45-0.86s-0.99-1.51-0.99-2.8v-49.8c0-1.3,0.33-2.23,0.99-2.8
				c0.66-0.57,1.48-0.86,2.45-0.86h14.66c5.09,0,9.41,0.6,12.96,1.79s6.53,2.96,8.96,5.3s4.27,5.23,5.54,8.67
				C398.96,26.93,399.59,30.92,399.59,35.45z M387.58,35.85c0-2.71-0.32-5.23-0.95-7.55s-1.65-4.34-3.05-6.05s-3.19-3.04-5.39-3.99
				c-2.19-0.96-5.07-1.43-8.63-1.43h-5.87v38.85h6.05c3.18,0,5.86-0.41,8.04-1.24c2.18-0.82,4-2.07,5.45-3.73
				c1.46-1.66,2.55-3.73,3.27-6.2C387.22,42.03,387.58,39.15,387.58,35.85z"/>
		</g>
		<g>
			<path class="st0" d="M143.87,97.22c0,0.13-0.04,0.24-0.12,0.34c-0.08,0.1-0.22,0.18-0.41,0.25c-0.19,0.06-0.44,0.11-0.76,0.15
				c-0.32,0.04-0.72,0.06-1.21,0.06c-0.48,0-0.88-0.02-1.2-0.06c-0.32-0.04-0.58-0.09-0.77-0.15c-0.19-0.06-0.33-0.15-0.41-0.25
				c-0.08-0.1-0.12-0.21-0.12-0.34V74.02c0-0.13,0.04-0.24,0.12-0.34c0.08-0.1,0.22-0.18,0.42-0.25c0.2-0.06,0.45-0.11,0.77-0.15
				c0.32-0.04,0.71-0.06,1.2-0.06c0.49,0,0.9,0.02,1.21,0.06c0.32,0.04,0.57,0.09,0.76,0.15c0.19,0.06,0.33,0.15,0.41,0.25
				c0.08,0.1,0.12,0.22,0.12,0.34V97.22z"/>
			<path class="st0" d="M169.48,96.15c0,0.29-0.05,0.55-0.15,0.78c-0.1,0.23-0.24,0.42-0.41,0.57c-0.17,0.15-0.37,0.26-0.61,0.33
				c-0.23,0.07-0.47,0.1-0.71,0.1h-2.13c-0.44,0-0.83-0.04-1.15-0.13c-0.32-0.09-0.62-0.25-0.89-0.48
				c-0.27-0.23-0.53-0.55-0.79-0.95c-0.25-0.4-0.54-0.91-0.85-1.55l-6.11-11.48c-0.35-0.68-0.72-1.42-1.08-2.21s-0.7-1.56-0.99-2.31
				h-0.04c0.05,0.91,0.09,1.82,0.11,2.72c0.03,0.9,0.04,1.84,0.04,2.8V97.2c0,0.13-0.04,0.24-0.1,0.34
				c-0.07,0.1-0.19,0.19-0.36,0.26c-0.17,0.07-0.4,0.12-0.69,0.16s-0.66,0.06-1.12,0.06c-0.44,0-0.81-0.02-1.1-0.06
				c-0.29-0.04-0.52-0.09-0.68-0.16c-0.16-0.07-0.28-0.15-0.34-0.26c-0.06-0.1-0.09-0.21-0.09-0.34V75.12c0-0.6,0.17-1.04,0.52-1.34
				c0.35-0.3,0.78-0.45,1.28-0.45h2.68c0.48,0,0.89,0.04,1.21,0.12c0.33,0.08,0.62,0.22,0.88,0.41c0.26,0.19,0.5,0.45,0.73,0.79
				c0.23,0.34,0.46,0.75,0.7,1.24l4.78,8.98c0.28,0.54,0.55,1.08,0.83,1.6c0.27,0.53,0.53,1.05,0.79,1.57
				c0.25,0.53,0.5,1.04,0.74,1.55c0.24,0.51,0.47,1.01,0.7,1.52h0.02c-0.04-0.88-0.07-1.81-0.09-2.77
				c-0.02-0.96-0.03-1.88-0.03-2.75V74.08c0-0.13,0.04-0.24,0.11-0.34c0.08-0.1,0.2-0.19,0.38-0.27c0.18-0.08,0.41-0.13,0.7-0.16
				c0.29-0.03,0.66-0.05,1.12-0.05c0.43,0,0.79,0.02,1.08,0.05c0.29,0.03,0.52,0.09,0.67,0.16c0.16,0.08,0.27,0.16,0.33,0.27
				c0.06,0.1,0.09,0.21,0.09,0.34V96.15z"/>
			<path class="st0" d="M191.17,75.39c0,0.37-0.02,0.68-0.05,0.94c-0.03,0.26-0.08,0.47-0.14,0.63c-0.06,0.16-0.14,0.28-0.24,0.35
				c-0.09,0.08-0.2,0.11-0.31,0.11h-6.15v19.8c0,0.13-0.04,0.24-0.12,0.34c-0.08,0.1-0.22,0.18-0.41,0.25
				c-0.19,0.06-0.45,0.11-0.77,0.15c-0.32,0.04-0.72,0.06-1.21,0.06s-0.88-0.02-1.21-0.06c-0.32-0.04-0.58-0.09-0.77-0.15
				c-0.19-0.06-0.33-0.15-0.41-0.25c-0.08-0.1-0.12-0.21-0.12-0.34v-19.8h-6.15c-0.13,0-0.23-0.04-0.32-0.11
				c-0.09-0.08-0.16-0.19-0.23-0.35c-0.06-0.16-0.11-0.37-0.14-0.63c-0.03-0.26-0.05-0.57-0.05-0.94c0-0.38,0.02-0.7,0.05-0.97
				c0.03-0.27,0.08-0.48,0.14-0.64c0.06-0.16,0.14-0.27,0.23-0.34c0.09-0.07,0.2-0.1,0.32-0.1h17.31c0.11,0,0.22,0.04,0.31,0.1
				c0.1,0.07,0.17,0.18,0.24,0.34s0.11,0.37,0.14,0.64C191.16,74.69,191.17,75.01,191.17,75.39z"/>
			<path class="st0" d="M208.63,95.95c0,0.37-0.02,0.67-0.05,0.92c-0.03,0.25-0.08,0.45-0.14,0.6c-0.06,0.15-0.14,0.26-0.24,0.33
				c-0.1,0.07-0.2,0.11-0.31,0.11h-12.34c-0.42,0-0.77-0.12-1.05-0.37c-0.28-0.25-0.43-0.65-0.43-1.21V74.92
				c0-0.56,0.14-0.96,0.43-1.21c0.28-0.25,0.64-0.37,1.05-0.37h12.26c0.11,0,0.21,0.03,0.3,0.09c0.09,0.06,0.16,0.17,0.23,0.33
				s0.11,0.36,0.14,0.61c0.03,0.25,0.05,0.56,0.05,0.94c0,0.36-0.02,0.66-0.05,0.9c-0.03,0.25-0.08,0.45-0.14,0.6
				c-0.06,0.15-0.14,0.26-0.23,0.33c-0.09,0.07-0.19,0.11-0.3,0.11h-8.77v6h7.42c0.11,0,0.22,0.04,0.31,0.1
				c0.09,0.07,0.17,0.18,0.24,0.32c0.06,0.15,0.11,0.34,0.14,0.59c0.03,0.25,0.05,0.55,0.05,0.9c0,0.37-0.02,0.67-0.05,0.91
				c-0.03,0.24-0.08,0.43-0.14,0.58c-0.06,0.15-0.14,0.25-0.24,0.31c-0.1,0.06-0.2,0.09-0.31,0.09h-7.42v6.93h8.84
				c0.11,0,0.22,0.04,0.31,0.11c0.09,0.07,0.17,0.18,0.24,0.33c0.06,0.15,0.11,0.35,0.14,0.6
				C208.62,95.27,208.63,95.58,208.63,95.95z"/>
			<path class="st0" d="M231.26,97.25c0,0.14-0.03,0.26-0.08,0.35c-0.05,0.09-0.17,0.17-0.36,0.24c-0.19,0.06-0.47,0.11-0.84,0.13
				c-0.37,0.03-0.87,0.04-1.5,0.04c-0.53,0-0.96-0.01-1.27-0.04c-0.32-0.03-0.57-0.07-0.75-0.14c-0.18-0.07-0.31-0.16-0.39-0.27
				c-0.08-0.11-0.14-0.24-0.19-0.39l-2.2-5.49c-0.27-0.62-0.53-1.17-0.78-1.65c-0.25-0.48-0.53-0.88-0.84-1.21
				c-0.31-0.32-0.67-0.57-1.07-0.73c-0.41-0.16-0.87-0.25-1.4-0.25h-1.56v9.36c0,0.13-0.04,0.24-0.12,0.34
				c-0.08,0.1-0.22,0.18-0.41,0.25c-0.19,0.06-0.44,0.11-0.76,0.15s-0.72,0.06-1.21,0.06c-0.48,0-0.88-0.02-1.21-0.06
				c-0.32-0.04-0.58-0.09-0.77-0.15c-0.19-0.06-0.32-0.15-0.4-0.25c-0.08-0.1-0.11-0.21-0.11-0.34v-22.3c0-0.56,0.14-0.96,0.43-1.21
				c0.28-0.25,0.64-0.37,1.05-0.37h6.36c0.65,0,1.18,0.01,1.59,0.04c0.42,0.03,0.8,0.06,1.14,0.09c0.99,0.14,1.88,0.38,2.67,0.72
				c0.79,0.34,1.46,0.79,2.01,1.34c0.55,0.55,0.97,1.2,1.26,1.96s0.44,1.62,0.44,2.59c0,0.82-0.1,1.57-0.31,2.25
				c-0.21,0.68-0.52,1.28-0.92,1.81c-0.41,0.53-0.91,0.99-1.5,1.39c-0.6,0.39-1.27,0.71-2.03,0.95c0.37,0.18,0.71,0.39,1.03,0.65
				c0.32,0.25,0.63,0.56,0.91,0.92c0.28,0.36,0.55,0.77,0.81,1.23c0.25,0.46,0.5,0.98,0.74,1.57l2.07,4.84
				c0.19,0.48,0.32,0.83,0.38,1.05C231.23,96.95,231.26,97.13,231.26,97.25z M224.82,80.59c0-0.81-0.18-1.49-0.55-2.05
				c-0.37-0.56-0.97-0.95-1.8-1.18c-0.25-0.06-0.54-0.11-0.86-0.15c-0.32-0.04-0.77-0.06-1.34-0.06h-2.24v6.97h2.54
				c0.71,0,1.33-0.08,1.86-0.26c0.53-0.17,0.97-0.41,1.33-0.72c0.35-0.31,0.62-0.68,0.8-1.11C224.74,81.6,224.82,81.12,224.82,80.59
				z"/>
			<path class="st0" d="M255.17,96.15c0,0.29-0.05,0.55-0.15,0.78c-0.1,0.23-0.24,0.42-0.41,0.57c-0.17,0.15-0.37,0.26-0.61,0.33
				c-0.23,0.07-0.47,0.1-0.71,0.1h-2.13c-0.44,0-0.83-0.04-1.15-0.13c-0.32-0.09-0.62-0.25-0.89-0.48
				c-0.27-0.23-0.53-0.55-0.79-0.95c-0.25-0.4-0.54-0.91-0.85-1.55l-6.11-11.48c-0.35-0.68-0.72-1.42-1.08-2.21
				c-0.37-0.79-0.7-1.56-0.99-2.31h-0.04c0.05,0.91,0.09,1.82,0.11,2.72c0.02,0.9,0.04,1.84,0.04,2.8V97.2
				c0,0.13-0.04,0.24-0.11,0.34c-0.07,0.1-0.19,0.19-0.36,0.26c-0.17,0.07-0.4,0.12-0.69,0.16s-0.66,0.06-1.12,0.06
				c-0.44,0-0.81-0.02-1.1-0.06s-0.52-0.09-0.68-0.16c-0.16-0.07-0.28-0.15-0.34-0.26c-0.06-0.1-0.09-0.21-0.09-0.34V75.12
				c0-0.6,0.17-1.04,0.52-1.34c0.35-0.3,0.77-0.45,1.28-0.45h2.68c0.48,0,0.88,0.04,1.21,0.12c0.33,0.08,0.62,0.22,0.88,0.41
				c0.26,0.19,0.5,0.45,0.73,0.79c0.23,0.34,0.46,0.75,0.7,1.24l4.78,8.98c0.28,0.54,0.55,1.08,0.83,1.6
				c0.27,0.53,0.53,1.05,0.79,1.57c0.25,0.53,0.5,1.04,0.74,1.55c0.24,0.51,0.48,1.01,0.7,1.52h0.02c-0.04-0.88-0.07-1.81-0.08-2.77
				c-0.02-0.96-0.03-1.88-0.03-2.75V74.08c0-0.13,0.04-0.24,0.11-0.34c0.08-0.1,0.2-0.19,0.38-0.27c0.18-0.08,0.41-0.13,0.7-0.16
				c0.29-0.03,0.66-0.05,1.12-0.05c0.43,0,0.79,0.02,1.08,0.05c0.29,0.03,0.52,0.09,0.67,0.16c0.16,0.08,0.27,0.16,0.33,0.27
				c0.06,0.1,0.09,0.21,0.09,0.34V96.15z"/>
			<path class="st0" d="M280.65,96.04c0.15,0.46,0.25,0.82,0.28,1.08c0.04,0.27-0.01,0.46-0.15,0.6c-0.14,0.13-0.39,0.22-0.74,0.25
				c-0.36,0.03-0.84,0.05-1.46,0.05c-0.65,0-1.15-0.01-1.51-0.03c-0.36-0.02-0.64-0.06-0.83-0.11c-0.19-0.06-0.32-0.14-0.4-0.24
				c-0.08-0.1-0.14-0.23-0.19-0.4L274,92.3h-9.22l-1.56,4.8c-0.05,0.18-0.12,0.33-0.2,0.45c-0.08,0.12-0.22,0.22-0.4,0.29
				c-0.18,0.07-0.44,0.12-0.78,0.14c-0.34,0.03-0.77,0.04-1.32,0.04c-0.58,0-1.04-0.02-1.37-0.06c-0.33-0.04-0.56-0.13-0.68-0.27
				c-0.13-0.15-0.17-0.35-0.13-0.62c0.04-0.27,0.13-0.62,0.29-1.06l7.57-21.79c0.08-0.21,0.16-0.39,0.27-0.52
				c0.1-0.13,0.26-0.23,0.48-0.3c0.22-0.07,0.53-0.11,0.92-0.13c0.39-0.02,0.91-0.03,1.56-0.03c0.75,0,1.34,0.01,1.78,0.03
				c0.44,0.02,0.79,0.06,1.03,0.13c0.25,0.07,0.42,0.17,0.53,0.31c0.11,0.14,0.2,0.33,0.28,0.57L280.65,96.04z M269.37,78.03h-0.02
				l-3.47,10.44h6.97L269.37,78.03z"/>
			<path class="st0" d="M297.38,75.39c0,0.37-0.02,0.68-0.05,0.94c-0.03,0.26-0.08,0.47-0.14,0.63c-0.06,0.16-0.14,0.28-0.24,0.35
				c-0.09,0.08-0.2,0.11-0.31,0.11h-6.15v19.8c0,0.13-0.04,0.24-0.12,0.34c-0.08,0.1-0.22,0.18-0.41,0.25
				c-0.19,0.06-0.45,0.11-0.77,0.15c-0.32,0.04-0.72,0.06-1.21,0.06s-0.88-0.02-1.21-0.06c-0.32-0.04-0.58-0.09-0.77-0.15
				c-0.19-0.06-0.33-0.15-0.41-0.25c-0.08-0.1-0.12-0.21-0.12-0.34v-19.8h-6.15c-0.13,0-0.23-0.04-0.32-0.11s-0.16-0.19-0.23-0.35
				c-0.06-0.16-0.11-0.37-0.14-0.63c-0.03-0.26-0.05-0.57-0.05-0.94c0-0.38,0.02-0.7,0.05-0.97c0.03-0.27,0.08-0.48,0.14-0.64
				s0.14-0.27,0.23-0.34s0.2-0.1,0.32-0.1h17.31c0.11,0,0.22,0.04,0.31,0.1c0.1,0.07,0.17,0.18,0.24,0.34
				c0.06,0.16,0.11,0.37,0.14,0.64C297.37,74.69,297.38,75.01,297.38,75.39z"/>
			<path class="st0" d="M305.3,97.22c0,0.13-0.04,0.24-0.12,0.34c-0.08,0.1-0.22,0.18-0.41,0.25c-0.19,0.06-0.44,0.11-0.76,0.15
				c-0.32,0.04-0.72,0.06-1.21,0.06c-0.48,0-0.88-0.02-1.21-0.06c-0.32-0.04-0.58-0.09-0.77-0.15c-0.19-0.06-0.33-0.15-0.41-0.25
				c-0.08-0.1-0.12-0.21-0.12-0.34V74.02c0-0.13,0.04-0.24,0.12-0.34c0.08-0.1,0.22-0.18,0.42-0.25c0.2-0.06,0.45-0.11,0.77-0.15
				c0.32-0.04,0.72-0.06,1.2-0.06c0.49,0,0.9,0.02,1.21,0.06c0.32,0.04,0.57,0.09,0.76,0.15c0.19,0.06,0.32,0.15,0.41,0.25
				c0.08,0.1,0.12,0.22,0.12,0.34V97.22z"/>
			<path class="st0" d="M332.74,85.34c0,2.04-0.25,3.86-0.76,5.47c-0.51,1.61-1.26,2.97-2.26,4.09c-1,1.12-2.24,1.97-3.71,2.56
				c-1.47,0.59-3.18,0.88-5.12,0.88c-1.91,0-3.58-0.25-5-0.75c-1.42-0.5-2.61-1.26-3.56-2.29c-0.95-1.02-1.66-2.33-2.13-3.91
				c-0.47-1.58-0.71-3.45-0.71-5.62c0-1.99,0.25-3.77,0.76-5.36c0.51-1.59,1.26-2.94,2.26-4.05c1-1.11,2.24-1.97,3.71-2.56
				c1.47-0.59,3.19-0.89,5.13-0.89c1.86,0,3.5,0.25,4.93,0.74c1.42,0.49,2.61,1.25,3.57,2.28c0.95,1.02,1.68,2.32,2.16,3.88
				C332.5,81.37,332.74,83.21,332.74,85.34z M327.51,85.6c0-1.29-0.1-2.46-0.3-3.52c-0.2-1.06-0.55-1.96-1.03-2.71
				c-0.49-0.75-1.14-1.33-1.94-1.75c-0.81-0.41-1.82-0.62-3.04-0.62c-1.23,0-2.25,0.23-3.07,0.69c-0.82,0.46-1.49,1.08-1.99,1.85
				c-0.51,0.77-0.86,1.67-1.07,2.7c-0.21,1.03-0.31,2.12-0.31,3.27c0,1.34,0.1,2.55,0.3,3.62c0.2,1.07,0.54,1.98,1.02,2.74
				c0.48,0.76,1.13,1.34,1.94,1.74c0.81,0.4,1.83,0.6,3.05,0.6c1.23,0,2.25-0.23,3.07-0.68c0.82-0.46,1.49-1.08,1.99-1.86
				c0.51-0.79,0.86-1.7,1.07-2.74C327.4,87.89,327.51,86.78,327.51,85.6z"/>
			<path class="st0" d="M357.19,96.15c0,0.29-0.05,0.55-0.15,0.78c-0.1,0.23-0.24,0.42-0.41,0.57c-0.17,0.15-0.37,0.26-0.61,0.33
				c-0.23,0.07-0.47,0.1-0.71,0.1h-2.13c-0.44,0-0.83-0.04-1.15-0.13c-0.32-0.09-0.62-0.25-0.89-0.48
				c-0.27-0.23-0.53-0.55-0.79-0.95c-0.25-0.4-0.54-0.91-0.85-1.55l-6.11-11.48c-0.35-0.68-0.72-1.42-1.08-2.21
				c-0.37-0.79-0.7-1.56-0.99-2.31h-0.04c0.05,0.91,0.09,1.82,0.11,2.72c0.02,0.9,0.04,1.84,0.04,2.8V97.2
				c0,0.13-0.04,0.24-0.11,0.34c-0.07,0.1-0.19,0.19-0.36,0.26c-0.17,0.07-0.4,0.12-0.69,0.16s-0.66,0.06-1.12,0.06
				c-0.44,0-0.81-0.02-1.1-0.06s-0.52-0.09-0.68-0.16c-0.16-0.07-0.28-0.15-0.34-0.26c-0.06-0.1-0.09-0.21-0.09-0.34V75.12
				c0-0.6,0.17-1.04,0.52-1.34c0.35-0.3,0.77-0.45,1.28-0.45h2.68c0.48,0,0.88,0.04,1.21,0.12c0.33,0.08,0.62,0.22,0.88,0.41
				c0.26,0.19,0.5,0.45,0.73,0.79c0.23,0.34,0.46,0.75,0.7,1.24l4.78,8.98c0.28,0.54,0.55,1.08,0.83,1.6
				c0.27,0.53,0.53,1.05,0.79,1.57c0.25,0.53,0.5,1.04,0.74,1.55c0.24,0.51,0.48,1.01,0.7,1.52h0.02c-0.04-0.88-0.07-1.81-0.08-2.77
				c-0.02-0.96-0.03-1.88-0.03-2.75V74.08c0-0.13,0.04-0.24,0.11-0.34c0.08-0.1,0.2-0.19,0.38-0.27c0.18-0.08,0.41-0.13,0.7-0.16
				c0.29-0.03,0.66-0.05,1.12-0.05c0.43,0,0.79,0.02,1.08,0.05c0.29,0.03,0.52,0.09,0.67,0.16c0.16,0.08,0.27,0.16,0.33,0.27
				c0.06,0.1,0.09,0.21,0.09,0.34V96.15z"/>
			<path class="st0" d="M382.66,96.04c0.15,0.46,0.25,0.82,0.28,1.08c0.04,0.27-0.01,0.46-0.15,0.6c-0.14,0.13-0.39,0.22-0.74,0.25
				c-0.36,0.03-0.84,0.05-1.46,0.05c-0.65,0-1.15-0.01-1.51-0.03c-0.36-0.02-0.64-0.06-0.83-0.11c-0.19-0.06-0.32-0.14-0.4-0.24
				c-0.08-0.1-0.14-0.23-0.19-0.4l-1.65-4.93h-9.22l-1.56,4.8c-0.05,0.18-0.12,0.33-0.2,0.45c-0.08,0.12-0.22,0.22-0.4,0.29
				c-0.18,0.07-0.44,0.12-0.78,0.14c-0.34,0.03-0.77,0.04-1.32,0.04c-0.58,0-1.04-0.02-1.37-0.06c-0.33-0.04-0.56-0.13-0.68-0.27
				c-0.13-0.15-0.17-0.35-0.13-0.62c0.04-0.27,0.13-0.62,0.29-1.06l7.57-21.79c0.08-0.21,0.16-0.39,0.27-0.52
				c0.1-0.13,0.26-0.23,0.48-0.3c0.22-0.07,0.53-0.11,0.92-0.13c0.39-0.02,0.91-0.03,1.56-0.03c0.75,0,1.34,0.01,1.78,0.03
				c0.44,0.02,0.79,0.06,1.03,0.13c0.25,0.07,0.42,0.17,0.53,0.31c0.11,0.14,0.2,0.33,0.28,0.57L382.66,96.04z M371.39,78.03h-0.02
				l-3.47,10.44h6.97L371.39,78.03z"/>
			<path class="st0" d="M399.59,95.81c0,0.38-0.01,0.7-0.05,0.96c-0.03,0.26-0.08,0.47-0.14,0.65c-0.06,0.17-0.14,0.29-0.24,0.37
				c-0.09,0.08-0.2,0.11-0.33,0.11h-11.26c-0.42,0-0.77-0.12-1.05-0.37c-0.28-0.25-0.43-0.65-0.43-1.21v-22.3
				c0-0.13,0.04-0.24,0.12-0.34c0.08-0.1,0.22-0.18,0.41-0.25c0.19-0.06,0.45-0.11,0.77-0.15c0.32-0.04,0.72-0.06,1.21-0.06
				c0.49,0,0.9,0.02,1.21,0.06c0.32,0.04,0.57,0.09,0.76,0.15c0.19,0.06,0.32,0.15,0.41,0.25c0.08,0.1,0.12,0.22,0.12,0.34v19.76
				h7.73c0.13,0,0.24,0.04,0.33,0.11c0.1,0.07,0.17,0.18,0.24,0.34c0.06,0.16,0.11,0.37,0.14,0.63
				C399.58,95.11,399.59,95.43,399.59,95.81z"/>
		</g>
	</g>
</g>
</svg>
